<?xml version="1.0" encoding="utf-8"?><!-- Uploaded to: SVG Repo, www.svgrepo.com, Generator: SVG Repo Mixer Tools -->
<svg fill="#000000" width="800px" height="800px" viewBox="0 0 24 24" id="responsive" data-name="Line Color" xmlns="http://www.w3.org/2000/svg" class="icon line-color"><path id="primary" d="M4,4V15h8V10a1,1,0,0,1,1-1h7V4a1,1,0,0,0-1-1H5A1,1,0,0,0,4,4ZM3,15v1a1,1,0,0,0,1,1h8V15Z" style="fill: none; stroke: rgb(0, 0, 0); stroke-linecap: round; stroke-linejoin: round; stroke-width: 2;"></path><path id="secondary" d="M12,20V10a1,1,0,0,1,1-1h7a1,1,0,0,1,1,1V20a1,1,0,0,1-1,1H13A1,1,0,0,1,12,20ZM18,9H15l.5,2h2Z" style="fill: none; stroke: rgb(44, 169, 188); stroke-linecap: round; stroke-linejoin: round; stroke-width: 2;"></path></svg>